<?xml version="1.0" standalone="no"?>
<!DOCTYPE svg PUBLIC "-//W3C//DTD SVG 20010904//EN"
 "http://www.w3.org/TR/2001/REC-SVG-20010904/DTD/svg10.dtd">
<svg version="1.0" xmlns="http://www.w3.org/2000/svg"
 width="864.000000pt" height="249.000000pt" viewBox="0 0 864.000000 249.000000"
 preserveAspectRatio="xMidYMid meet">

<g transform="translate(0.000000,249.000000) scale(0.100000,-0.100000)"
fill="#000000" stroke="none">
<path d="M555 2483 c-158 -11 -291 -69 -382 -167 -96 -102 -132 -195 -133
-342 0 -161 65 -286 205 -392 41 -30 160 -96 284 -158 118 -58 235 -119 260
-136 143 -96 201 -211 171 -337 -37 -154 -191 -252 -400 -254 -180 -1 -326 66
-422 194 -38 52 -78 158 -78 210 0 25 -4 29 -26 29 -27 0 -27 0 -21 -61 4 -43
17 -85 42 -136 93 -188 299 -302 543 -303 364 -1 610 228 589 550 l-6 85 19
-53 c103 -290 349 -506 645 -567 102 -21 281 -21 376 1 319 71 569 350 633
702 13 72 14 51 15 -310 l1 -388 30 0 30 0 2 837 3 837 312 -610 c223 -435
317 -610 330 -612 15 -2 78 114 333 611 l315 614 3 -838 2 -839 553 0 c354 0
575 4 613 11 83 15 173 61 239 121 63 58 99 114 126 196 l18 57 0 -192 1 -193
135 0 135 0 0 875 0 875 195 0 c232 0 277 -11 356 -90 88 -88 129 -205 129
-370 0 -167 -42 -284 -131 -371 -51 -50 -135 -89 -189 -89 -47 0 -40 -39 18
-97 40 -41 62 -82 151 -278 136 -301 174 -377 212 -419 l31 -36 150 0 149 0
-45 58 c-27 34 -91 152 -159 292 -62 129 -121 249 -129 266 -25 46 -93 103
-166 137 l-65 30 60 17 c157 43 277 139 346 278 l42 85 0 127 0 127 -42 85
c-70 141 -190 236 -359 284 -49 14 -121 18 -441 22 l-383 4 -1 -629 c0 -522
-2 -621 -13 -588 -48 150 -163 260 -332 317 l-71 24 88 42 c105 50 183 122
225 208 27 55 29 68 29 174 0 105 -2 120 -28 174 -56 120 -153 204 -286 248
-64 22 -82 22 -617 26 l-551 3 -263 -511 c-145 -281 -266 -507 -270 -503 -4 4
-123 234 -265 511 l-257 502 -149 0 -149 0 -1 -387 c-1 -350 -2 -381 -14 -316
-50 276 -217 514 -443 631 -137 71 -205 87 -377 87 -172 0 -240 -14 -371 -75
-113 -52 -187 -105 -270 -193 -213 -223 -297 -553 -228 -887 3 -15 -5 -5 -20
23 -63 118 -148 188 -336 279 -411 198 -387 185 -459 256 -76 75 -101 129
-101 217 0 75 26 138 80 198 158 173 468 170 637 -5 54 -55 88 -126 104 -211
11 -61 15 -67 37 -67 24 0 24 1 17 57 -33 262 -273 437 -570 416z m1636 -82
c252 -96 400 -406 400 -843 0 -242 -30 -395 -111 -563 -107 -221 -264 -325
-472 -313 -201 12 -356 127 -458 340 -145 301 -142 772 6 1076 36 75 61 109
122 171 80 81 141 118 242 146 74 20 197 14 271 -14z m3054 -25 c136 -63 213
-253 185 -453 -18 -132 -75 -227 -165 -274 -44 -23 -46 -26 -43 -63 3 -37 5
-39 52 -54 30 -10 69 -34 101 -64 89 -81 125 -180 125 -343 0 -202 -67 -340
-193 -396 -49 -23 -65 -24 -294 -27 l-243 -4 0 851 0 851 213 0 c201 0 215 -1
262 -24z"/>
<path d="M7499 1564 c-189 -493 -345 -900 -347 -905 -2 -5 11 -9 30 -9 l33 0
97 253 96 252 377 0 377 0 95 -252 96 -253 143 0 143 0 -13 38 c-8 20 -159
415 -336 877 -177 462 -327 852 -332 868 -9 25 -14 27 -62 27 l-52 0 -345
-896z m465 107 c91 -239 166 -438 166 -442 0 -5 -155 -9 -345 -9 -190 0 -345
4 -345 9 0 7 265 706 322 849 14 36 24 49 29 40 4 -7 82 -208 173 -447z"/>
<path d="M74 1093 c20 -139 67 -214 171 -274 62 -36 81 -38 34 -4 -78 58 -130
149 -150 260 -10 60 -13 65 -36 65 -24 0 -25 -2 -19 -47z"/>
</g>
</svg>
